<?xml version="1.0" encoding="utf-8"?>
<svg version="1.1"
	 id="Layer_1" image-rendering="optimizeQuality" shape-rendering="geometricPrecision" text-rendering="geometricPrecision"
	 xmlns="http://www.w3.org/2000/svg" xmlns:xlink="http://www.w3.org/1999/xlink" x="0px" y="0px" viewBox="0 0 2309.077 1661.215"
	 enable-background="new 0 0 2309.077 1661.215" xml:space="preserve">
<g>
	<path fill="#434242" d="M346.145,498.058l205.633,11.192l13.132,28.353c56.407,29.92,290.617,134.079,304.794,186.607
		l13.281,168.178l-840.44-30.144c1.791-34.471,25.368-158.03,27.159-192.501c4.701-55.81,211.304-113.785,263.757-134.378
		L346.145,498.058z"/>
	<polygon fill="#010101" points="561.851,880.822 368.454,873.883 346.145,602.74 576.549,614.976 	"/>
	<polygon fill="#F5F5F5" points="346.145,602.74 576.549,614.976 561.254,892.313 368.902,879.255 	"/>
	<polygon fill="#E31E24" points="454.93,649.522 498.877,649.522 508.279,878.957 434.263,876.271 	"/>
	<path fill="#C52C32" d="M472.315,603.71c17.31,0,35.068-0.821,35.068,22.458c0,23.205-13.953,42.007-31.263,42.007
		s-31.337-18.802-31.337-42.007C444.783,602.889,455.079,603.71,472.315,603.71z"/>
	<path fill="#D9DADA" d="M347.264,493.88c37.008,39.843,77.075,74.986,126.469,96.102c32.158-12.386,57.303-37.829,79.463-69.017
		l42.007,168.252l-116.844-78.194c-50.14,24.473-89.013,48.573-139.153,73.046C345.622,620.498,340.847,557.375,347.264,493.88z"/>
	<path fill="#666565" d="M586.846,464.855l-256.072-50.886c4.477,20.668,9.252,41.336,13.505,62.153
		c1.567,7.611,0.298,15.967,3.731,22.906c6.193,12.386,14.102,24.324,24.324,33.65c16.266,14.773,36.411,24.846,54.244,37.829
		c15.221,11.192,26.861,28.726,44.842,34.546c7.536,2.537,13.132-8.879,19.623-13.505c11.043-7.984,25.592-12.759,32.755-24.324
		L586.846,464.855z"/>
	<path fill="#727271" d="M132.752,30.608h686.439c4.328,0,7.834,3.656,7.834,7.834v463.197c0,4.178-3.581,7.834-7.834,7.834H132.752
		c-4.178,0-7.834-3.581-7.834-7.834V38.442C124.917,34.115,128.424,30.608,132.752,30.608z"/>
	
		<linearGradient id="SVGID_1_" gradientUnits="userSpaceOnUse" x1="-119.5317" y1="1630.2692" x2="-116.7823" y2="1630.2692" gradientTransform="matrix(93.3556 0 0 -81.9304 11729.3086 133711.8281)">
		<stop  offset="0" style="stop-color:#898989"/>
		<stop  offset="1" style="stop-color:#D9DADA"/>
	</linearGradient>
	<path fill="url(#SVGID_1_)" d="M570.357,30.608h248.834c4.328,0,7.834,3.656,7.834,7.834v164.745l-13.281,52.677V51.723
		c0-4.253-3.507-7.834-7.834-7.834H570.357V30.608z"/>
	<path fill="#434242" d="M146.033,43.889H805.91c4.328,0,7.834,3.581,7.834,7.834v418.579c0,4.253-3.581,7.834-7.834,7.834H146.033
		c-4.253,0-7.834-3.507-7.834-7.834V51.723C138.198,47.47,141.78,43.889,146.033,43.889z"/>
	<path fill="#434242" d="M721.672,481.941h35.516c0.224,0,0.373,0.149,0.373,0.373v22.533c0,0.224-0.149,0.373-0.373,0.373h-35.516
		c-0.224,0-0.373-0.149-0.373-0.373v-22.533C721.299,482.091,721.448,481.941,721.672,481.941z"/>
	<path fill="#EBECEC" d="M157.001,52.544h637.941c4.327,0,7.834,3.508,7.834,7.834v401.343c0,4.327-3.508,7.834-7.834,7.834H157.001
		c-4.327,0-7.834-3.508-7.834-7.834V60.378C149.166,56.052,152.674,52.544,157.001,52.544z"/>
	<path fill="#FEFEFE" d="M740.698,488.06c3.358,0.597,5.82,3.507,5.82,6.939c0,3.954-3.134,7.088-7.088,7.088
		c-3.88,0-7.088-3.134-7.088-7.088c0-3.432,2.537-6.342,5.82-6.939v1.865c-2.313,0.597-4.029,2.611-4.029,5.074
		c0,2.91,2.388,5.298,5.297,5.298s5.298-2.388,5.298-5.298c0-2.462-1.716-4.477-4.029-5.074V488.06z"/>
	<rect x="738.534" y="484.105" fill="#FEFEFE" width="1.772" height="8.198"/>
	<path fill="#5B5B5B" d="M1900.631,619.229l-247.864,13.505l-15.818,34.173c-68.047,36.038-350.233,161.612-367.394,224.883
		l-15.967,202.723l1012.945-36.337c-2.164-41.559-30.591-190.487-32.755-232.046c-5.596-67.226-254.654-137.139-317.926-161.91
		L1900.631,619.229z"/>
	<polygon fill="#010101" points="1640.605,1080.636 1873.77,1072.279 1900.631,745.474 1622.921,760.173 	"/>
	<polygon fill="#F5F5F5" points="1900.631,745.474 1622.921,760.173 1641.351,1094.439 1873.248,1078.696 	"/>
	<polygon fill="#E31E24" points="1769.536,801.807 1716.561,801.807 1705.219,1078.323 1794.457,1075.114 	"/>
	<path fill="#C52C32" d="M1748.495,746.594c-20.817,0-42.231-0.97-42.231,27.01s16.862,50.662,37.754,50.662
		c20.817,0,37.679-22.682,37.679-50.662S1769.312,746.594,1748.495,746.594z"/>
	<path fill="#D9DADA" d="M1899.288,614.156c-44.619,48.051-92.893,90.431-152.434,115.874
		c-38.724-14.923-69.092-45.589-95.803-83.119l-50.662,202.723l140.944-94.236c60.362,29.547,107.293,58.497,167.655,88.043
		C1901.228,766.814,1906.973,690.783,1899.288,614.156z"/>
	<path fill="#5D5C5C" d="M1610.536,579.237l308.674-61.332c-5.447,24.921-11.267,49.841-16.34,74.911
		c-1.865,9.103-0.373,19.25-4.477,27.532c-7.461,14.997-17.012,29.398-29.323,40.589c-19.623,17.907-43.872,29.92-65.361,45.663
		c-18.355,13.43-32.382,34.62-54.094,41.634c-9.103,2.984-15.818-10.67-23.652-16.34c-13.281-9.55-30.815-15.296-39.396-29.248
		L1610.536,579.237z"/>
	<path fill="#898989" d="M2157.822,55.827h-827.383c-5.223,0-9.401,4.402-9.401,9.401v558.329c0,5.074,4.328,9.401,9.401,9.401
		h827.383c5.074,0,9.476-4.253,9.476-9.401V65.228C2167.297,60.08,2163.044,55.827,2157.822,55.827z"/>
	
		<linearGradient id="SVGID_2_" gradientUnits="userSpaceOnUse" x1="53156.0898" y1="-4262.4028" x2="64554.9531" y2="-4262.4028" gradientTransform="matrix(0.0271 0 0 -0.0271 -121.5262 75.911)">
		<stop  offset="0" style="stop-color:#898989"/>
		<stop  offset="1" style="stop-color:#D9DADA"/>
	</linearGradient>
	<path fill="url(#SVGID_2_)" d="M1630.383,55.827h-299.944c-5.223,0-9.401,4.402-9.401,9.401v198.62l15.967,63.496V81.27
		c0-5.148,4.253-9.401,9.476-9.401h283.902V55.827z"/>
	<path fill="#434242" d="M2141.78,71.869H1346.48c-5.223,0-9.476,4.253-9.476,9.401v504.533c0,5.148,4.328,9.476,9.476,9.476
		h795.299c5.148,0,9.476-4.253,9.476-9.476V81.27C2151.256,76.122,2147.003,71.869,2141.78,71.869z"/>
	<path fill="#434242" d="M2090.595,599.83h-42.679c-0.298,0-0.522,0.224-0.522,0.448v27.159c0,0.224,0.224,0.522,0.522,0.522h42.679
		c0.299,0,0.522-0.298,0.522-0.522v-27.159C2091.118,600.054,2090.894,599.83,2090.595,599.83z"/>
	<path fill="#EBECEC" d="M1359.612,82.24h768.961c5.192,0,9.401,4.209,9.401,9.401v483.865c0,5.192-4.209,9.401-9.401,9.401
		h-768.961c-5.192,0-9.401-4.209-9.401-9.401V91.641C1350.211,86.449,1354.42,82.24,1359.612,82.24z"/>
	<path fill="#FEFEFE" d="M2067.689,607.217c-3.955,0.672-6.939,4.178-6.939,8.357c0,4.701,3.805,8.581,8.506,8.581
		c4.701,0,8.506-3.88,8.506-8.581c0-4.178-2.985-7.685-6.939-8.357v2.238c2.761,0.672,4.775,3.134,4.775,6.118
		c0,3.507-2.835,6.342-6.342,6.342c-3.507,0-6.342-2.835-6.342-6.342c0-2.984,2.015-5.447,4.775-6.118V607.217z"/>
	<rect x="2068.211" y="602.441" fill="#FEFEFE" width="2.135" height="9.881"/>
	<path fill="#010101" d="M945.809,1083.769l285.171,15.52l18.131,39.321c78.269,41.485,403.059,185.935,422.682,258.758
		l18.429,233.24l-1165.454-41.783c2.462-47.827,35.217-219.213,37.68-266.965c6.491-77.448,293.005-157.806,365.753-186.383
		L945.809,1083.769z"/>
	<polygon fill="#010101" points="1244.932,1614.641 976.699,1605.016 945.809,1228.966 1265.302,1245.903 	"/>
	<polygon fill="#F5F5F5" points="945.809,1228.966 1265.302,1245.903 1244.037,1630.533 977.296,1612.402 	"/>
	<polygon fill="#E31E24" points="1096.602,1293.805 1157.56,1293.805 1170.618,1611.954 1067.95,1608.298 	"/>
	<path fill="#C52C32" d="M1120.776,1230.235c24.025,0,48.648-1.119,48.648,31.188c0,32.158-19.474,58.273-43.425,58.273
		c-24.025,0-43.425-26.115-43.425-58.273C1082.574,1229.115,1096.825,1230.235,1120.776,1230.235z"/>
	<path fill="#D9DADA" d="M947.376,1077.95c51.259,55.288,106.771,104.01,175.34,133.333c44.544-17.236,79.463-52.527,110.203-95.728
		l58.273,233.315l-162.134-108.487c-69.465,34.023-123.41,67.375-192.949,101.399
		C945.063,1253.589,938.422,1166.068,947.376,1077.95z"/>
	<path fill="#737373" d="M1279.553,1037.733l-355.158-70.584c6.267,28.726,12.908,57.377,18.802,86.178
		c2.164,10.52,0.373,22.16,5.148,31.71c8.581,17.236,19.549,33.8,33.725,46.708c22.608,20.593,50.513,34.471,75.21,52.527
		c21.115,15.445,37.306,39.843,62.227,47.901c10.446,3.432,18.28-12.311,27.159-18.802c15.296-11.043,35.516-17.609,45.439-33.651
		L1279.553,1037.733z"/>
	<path fill="#9E9E9E" d="M649.819,435.532h951.987c5.969,0,10.893,4.999,10.893,10.819v642.343c0,5.82-5.074,10.893-10.893,10.893
		H649.819c-5.82,0-10.819-4.924-10.819-10.893V446.351C639,440.382,643.85,435.532,649.819,435.532z"/>
	
		<linearGradient id="SVGID_3_" gradientUnits="userSpaceOnUse" x1="-117.6627" y1="1627.9983" x2="-114.9134" y2="1627.9983" gradientTransform="matrix(129.4766 0 0 -113.6279 16491.293 185577.7188)">
		<stop  offset="0" style="stop-color:#898989"/>
		<stop  offset="1" style="stop-color:#D9DADA"/>
	</linearGradient>
	<path fill="url(#SVGID_3_)" d="M1256.721,435.532h345.085c5.969,0,10.893,4.999,10.893,10.819v228.465l-18.504,73.121V464.855
		c0-5.969-4.85-10.893-10.819-10.893h-326.656V435.532z"/>
	<path fill="#434242" d="M668.249,453.962h915.128c5.969,0,10.819,4.924,10.819,10.893v580.414c0,5.969-4.924,10.894-10.819,10.894
		H668.249c-5.894,0-10.819-4.924-10.819-10.894V464.855C657.43,458.886,662.28,453.962,668.249,453.962z"/>
	<path fill="#434242" d="M1466.607,1061.386h49.17c0.298,0,0.597,0.298,0.597,0.597v31.188c0,0.298-0.298,0.597-0.597,0.597h-49.17
		c-0.373,0-0.597-0.298-0.597-0.597v-31.188C1466.01,1061.684,1466.234,1061.386,1466.607,1061.386z"/>
	<path fill="#EBECEC" d="M683.47,465.9h884.76c5.975,0,10.819,4.844,10.819,10.819v556.687c0,5.975-4.844,10.819-10.819,10.819
		H683.47c-5.975,0-10.819-4.844-10.819-10.819V476.719C672.651,470.743,677.495,465.9,683.47,465.9z"/>
	<path fill="#FEFEFE" d="M1492.946,1069.891c4.626,0.821,8.058,4.85,8.058,9.7c0,5.372-4.402,9.774-9.849,9.774
		c-5.372,0-9.774-4.402-9.774-9.774c0-4.85,3.432-8.879,7.984-9.7v2.611c-3.134,0.746-5.521,3.656-5.521,7.088
		c0,4.029,3.283,7.237,7.312,7.237c4.029,0,7.312-3.208,7.312-7.237c0-3.432-2.313-6.342-5.521-7.088V1069.891z"/>
	<rect x="1489.961" y="1064.445" fill="#FEFEFE" width="2.457" height="11.369"/>
</g>
</svg>
